<svg xmlns="http://www.w3.org/2000/svg" xmlns:xlink="http://www.w3.org/1999/xlink" width="100" zoomAndPan="magnify" viewBox="0 0 75 30.000001" height="40" preserveAspectRatio="xMidYMid meet" version="1.0"><defs><g/><clipPath id="id1"><path d="M 63 13 L 73.757812 13 L 73.757812 28.707031 L 63 28.707031 Z M 63 13 " clip-rule="nonzero"/></clipPath><clipPath id="id2"><path d="M 47.628906 2 L 72 2 L 72 28 L 47.628906 28 Z M 47.628906 2 " clip-rule="nonzero"/></clipPath><clipPath id="id3"><path d="M 67 0.398438 L 73.757812 0.398438 L 73.757812 12 L 67 12 Z M 67 0.398438 " clip-rule="nonzero"/></clipPath><clipPath id="id4"><path d="M 72 12 L 73.757812 12 L 73.757812 14 L 72 14 Z M 72 12 " clip-rule="nonzero"/></clipPath></defs><g fill="#5b7482" fill-opacity="1"><g transform="translate(4.323623, 18.362803)"><g><path d="M 3.640625 -7.34375 C 4.203125 -7.34375 4.691406 -7.253906 5.109375 -7.078125 C 5.523438 -6.898438 5.847656 -6.644531 6.078125 -6.3125 C 6.304688 -5.988281 6.421875 -5.609375 6.421875 -5.171875 C 6.421875 -4.765625 6.316406 -4.394531 6.109375 -4.0625 C 5.910156 -3.738281 5.65625 -3.453125 5.34375 -3.203125 C 5.03125 -2.953125 4.609375 -2.644531 4.078125 -2.28125 C 3.773438 -2.082031 3.53125 -1.914062 3.34375 -1.78125 L 6.5 -1.78125 L 6.5 0 L 0.515625 0 L 0.515625 -0.5 C 0.515625 -0.875 0.597656 -1.207031 0.765625 -1.5 C 0.941406 -1.789062 1.191406 -2.082031 1.515625 -2.375 C 1.859375 -2.664062 2.34375 -3.0625 2.96875 -3.5625 C 3.476562 -3.96875 3.832031 -4.273438 4.03125 -4.484375 C 4.238281 -4.691406 4.34375 -4.898438 4.34375 -5.109375 C 4.34375 -5.316406 4.265625 -5.492188 4.109375 -5.640625 C 3.960938 -5.796875 3.738281 -5.875 3.4375 -5.875 C 3.125 -5.875 2.875 -5.78125 2.6875 -5.59375 C 2.507812 -5.414062 2.421875 -5.175781 2.421875 -4.875 L 2.421875 -4.671875 L 0.546875 -4.671875 C 0.535156 -4.722656 0.53125 -4.800781 0.53125 -4.90625 C 0.53125 -5.65625 0.796875 -6.25 1.328125 -6.6875 C 1.859375 -7.125 2.628906 -7.34375 3.640625 -7.34375 Z M 3.640625 -7.34375 "/></g></g></g><g fill="#5b7482" fill-opacity="1"><g transform="translate(11.320585, 18.362803)"><g><path d="M 5.59375 -7.21875 C 5.945312 -7.21875 6.273438 -7.140625 6.578125 -6.984375 C 6.890625 -6.835938 7.132812 -6.628906 7.3125 -6.359375 C 7.488281 -6.085938 7.578125 -5.785156 7.578125 -5.453125 C 7.578125 -4.554688 7.175781 -3.992188 6.375 -3.765625 L 6.375 -3.734375 C 7.289062 -3.515625 7.75 -2.910156 7.75 -1.921875 C 7.75 -1.546875 7.65625 -1.210938 7.46875 -0.921875 C 7.28125 -0.628906 7.023438 -0.398438 6.703125 -0.234375 C 6.378906 -0.078125 6.03125 0 5.65625 0 L 0.78125 0 L 0.78125 -7.21875 Z M 3.09375 -4.40625 L 4.6875 -4.40625 C 4.84375 -4.40625 4.972656 -4.457031 5.078125 -4.5625 C 5.179688 -4.675781 5.234375 -4.816406 5.234375 -4.984375 L 5.234375 -5.078125 C 5.234375 -5.234375 5.175781 -5.363281 5.0625 -5.46875 C 4.957031 -5.582031 4.832031 -5.640625 4.6875 -5.640625 L 3.09375 -5.640625 Z M 3.09375 -1.6875 L 4.859375 -1.6875 C 5.015625 -1.6875 5.140625 -1.738281 5.234375 -1.84375 C 5.335938 -1.945312 5.390625 -2.082031 5.390625 -2.25 L 5.390625 -2.359375 C 5.390625 -2.515625 5.335938 -2.644531 5.234375 -2.75 C 5.140625 -2.863281 5.015625 -2.921875 4.859375 -2.921875 L 3.09375 -2.921875 Z M 3.09375 -1.6875 "/></g></g></g><g fill="#5b7482" fill-opacity="1"><g transform="translate(19.481965, 18.362803)"><g><path d="M 4 -5.6875 C 4.15625 -5.6875 4.296875 -5.664062 4.421875 -5.625 C 4.554688 -5.582031 4.625 -5.554688 4.625 -5.546875 L 4.625 -3.796875 L 3.953125 -3.796875 C 3.515625 -3.796875 3.195312 -3.679688 3 -3.453125 C 2.8125 -3.234375 2.71875 -2.90625 2.71875 -2.46875 L 2.71875 0 L 0.625 0 L 0.625 -5.546875 L 2.34375 -5.546875 L 2.484375 -4.703125 C 2.609375 -5.023438 2.804688 -5.269531 3.078125 -5.4375 C 3.347656 -5.601562 3.65625 -5.6875 4 -5.6875 Z M 4 -5.6875 "/></g></g></g><g fill="#5b7482" fill-opacity="1"><g transform="translate(24.139615, 18.362803)"><g><path d="M 3.375 -5.671875 C 4.21875 -5.671875 4.90625 -5.523438 5.4375 -5.234375 C 5.96875 -4.953125 6.234375 -4.492188 6.234375 -3.859375 L 6.234375 -1.703125 C 6.234375 -1.578125 6.257812 -1.476562 6.3125 -1.40625 C 6.375 -1.332031 6.460938 -1.296875 6.578125 -1.296875 L 6.953125 -1.296875 L 6.953125 -0.078125 C 6.929688 -0.0664062 6.875 -0.046875 6.78125 -0.015625 C 6.695312 0.015625 6.570312 0.046875 6.40625 0.078125 C 6.25 0.109375 6.066406 0.125 5.859375 0.125 C 5.453125 0.125 5.117188 0.0664062 4.859375 -0.046875 C 4.597656 -0.171875 4.414062 -0.34375 4.3125 -0.5625 C 4.050781 -0.351562 3.753906 -0.1875 3.421875 -0.0625 C 3.085938 0.0625 2.703125 0.125 2.265625 0.125 C 0.960938 0.125 0.3125 -0.390625 0.3125 -1.421875 C 0.3125 -1.960938 0.457031 -2.375 0.75 -2.65625 C 1.039062 -2.945312 1.457031 -3.144531 2 -3.25 C 2.550781 -3.351562 3.265625 -3.40625 4.140625 -3.40625 L 4.140625 -3.671875 C 4.140625 -3.890625 4.066406 -4.054688 3.921875 -4.171875 C 3.773438 -4.285156 3.582031 -4.34375 3.34375 -4.34375 C 3.125 -4.34375 2.9375 -4.300781 2.78125 -4.21875 C 2.625 -4.144531 2.546875 -4.023438 2.546875 -3.859375 L 2.546875 -3.8125 L 0.484375 -3.8125 C 0.472656 -3.84375 0.46875 -3.890625 0.46875 -3.953125 C 0.46875 -4.484375 0.71875 -4.898438 1.21875 -5.203125 C 1.71875 -5.515625 2.4375 -5.671875 3.375 -5.671875 Z M 4.140625 -2.421875 C 3.546875 -2.421875 3.109375 -2.351562 2.828125 -2.21875 C 2.546875 -2.09375 2.40625 -1.921875 2.40625 -1.703125 C 2.40625 -1.347656 2.644531 -1.171875 3.125 -1.171875 C 3.394531 -1.171875 3.628906 -1.242188 3.828125 -1.390625 C 4.035156 -1.535156 4.140625 -1.71875 4.140625 -1.9375 Z M 4.140625 -2.421875 "/></g></g></g><g fill="#5b7482" fill-opacity="1"><g transform="translate(31.136577, 18.362803)"><g><path d="M 0.703125 -6.1875 L 0.703125 -7.609375 L 2.796875 -7.609375 L 2.796875 -6.1875 Z M 0.703125 0 L 0.703125 -5.546875 L 2.796875 -5.546875 L 2.796875 0 Z M 0.703125 0 "/></g></g></g><g fill="#5b7482" fill-opacity="1"><g transform="translate(34.629819, 18.362803)"><g><path d="M 0.703125 0 L 0.703125 -7.609375 L 2.796875 -7.609375 L 2.796875 0 Z M 0.703125 0 "/></g></g></g><g fill="#5b7482" fill-opacity="1"><g transform="translate(38.123062, 18.362803)"><g><path d="M 3.5 -5.671875 C 4.507812 -5.671875 5.28125 -5.429688 5.8125 -4.953125 C 6.351562 -4.472656 6.625 -3.742188 6.625 -2.765625 L 6.625 -2.421875 L 2.46875 -2.421875 C 2.46875 -2.015625 2.554688 -1.707031 2.734375 -1.5 C 2.910156 -1.300781 3.191406 -1.203125 3.578125 -1.203125 C 3.929688 -1.203125 4.1875 -1.273438 4.34375 -1.421875 C 4.507812 -1.578125 4.59375 -1.773438 4.59375 -2.015625 L 6.625 -2.015625 C 6.625 -1.347656 6.367188 -0.820312 5.859375 -0.4375 C 5.347656 -0.0625 4.601562 0.125 3.625 0.125 C 2.59375 0.125 1.789062 -0.113281 1.21875 -0.59375 C 0.65625 -1.070312 0.375 -1.796875 0.375 -2.765625 C 0.375 -3.722656 0.648438 -4.445312 1.203125 -4.9375 C 1.753906 -5.425781 2.519531 -5.671875 3.5 -5.671875 Z M 3.578125 -4.34375 C 2.921875 -4.34375 2.554688 -4.03125 2.484375 -3.40625 L 4.515625 -3.40625 C 4.515625 -3.6875 4.429688 -3.910156 4.265625 -4.078125 C 4.097656 -4.253906 3.867188 -4.34375 3.578125 -4.34375 Z M 3.578125 -4.34375 "/></g></g></g><g clip-path="url(#id1)"><path fill="#5b7482" d="M 72.300781 17.382812 C 72.050781 17.382812 71.808594 17.445312 71.601562 17.566406 C 71.542969 17.480469 71.480469 17.402344 71.402344 17.328125 C 71.136719 17.058594 70.777344 16.910156 70.394531 16.910156 C 70.207031 16.910156 70.03125 16.949219 69.867188 17.011719 C 69.804688 16.777344 69.675781 16.558594 69.496094 16.382812 C 69.230469 16.117188 68.871094 15.96875 68.488281 15.96875 C 68.320312 15.96875 68.160156 15.996094 68.011719 16.050781 L 68.011719 15.023438 C 68.011719 14.644531 67.863281 14.289062 67.589844 14.027344 C 67.324219 13.757812 66.964844 13.609375 66.582031 13.609375 C 65.792969 13.609375 65.152344 14.246094 65.152344 15.023438 L 65.152344 19.921875 L 64.652344 20.167969 C 64.226562 20.378906 63.871094 20.703125 63.625 21.097656 C 63.375 21.496094 63.246094 21.957031 63.246094 22.421875 C 63.246094 23.265625 63.667969 24.046875 64.378906 24.519531 L 65.679688 25.375 C 65.945312 25.550781 66.105469 25.847656 66.105469 26.164062 L 66.105469 28.707031 L 67.058594 28.707031 L 67.058594 26.164062 C 67.058594 25.53125 66.738281 24.941406 66.207031 24.589844 L 65.414062 24.066406 L 64.90625 23.734375 C 64.464844 23.4375 64.199219 22.949219 64.199219 22.421875 C 64.199219 22.128906 64.28125 21.84375 64.4375 21.59375 C 64.589844 21.347656 64.8125 21.144531 65.078125 21.011719 L 65.152344 20.976562 L 65.152344 22.101562 L 66.105469 22.101562 L 66.105469 15.023438 C 66.105469 14.765625 66.320312 14.554688 66.582031 14.554688 C 66.707031 14.554688 66.824219 14.601562 66.910156 14.6875 C 66.914062 14.691406 66.917969 14.695312 66.921875 14.699219 C 67.007812 14.78125 67.058594 14.898438 67.058594 15.023438 L 67.058594 19.269531 L 68.011719 19.269531 L 68.011719 17.382812 C 68.011719 17.125 68.226562 16.910156 68.488281 16.910156 C 68.613281 16.910156 68.734375 16.960938 68.820312 17.046875 C 68.820312 17.050781 68.824219 17.054688 68.828125 17.054688 C 68.917969 17.140625 68.964844 17.257812 68.964844 17.382812 L 68.964844 19.742188 L 69.917969 19.742188 L 69.917969 18.328125 C 69.917969 18.066406 70.132812 17.855469 70.394531 17.855469 C 70.523438 17.855469 70.640625 17.902344 70.726562 17.992188 C 70.726562 17.992188 70.730469 17.996094 70.734375 18 C 70.824219 18.085938 70.871094 18.203125 70.871094 18.328125 L 70.871094 20.214844 L 71.824219 20.214844 L 71.824219 18.800781 C 71.824219 18.671875 71.875 18.558594 71.960938 18.472656 C 71.964844 18.46875 71.96875 18.464844 71.972656 18.460938 C 72.058594 18.375 72.175781 18.328125 72.300781 18.328125 C 72.5625 18.328125 72.777344 18.539062 72.777344 18.800781 L 72.777344 21.40625 C 72.777344 22.394531 72.605469 23.367188 72.265625 24.296875 C 72.140625 24.632812 72.011719 24.925781 71.875 25.191406 C 71.84375 25.257812 71.824219 25.328125 71.824219 25.402344 L 71.824219 28.707031 L 72.777344 28.707031 L 72.777344 25.515625 C 72.910156 25.242188 73.035156 24.949219 73.160156 24.621094 C 73.539062 23.585938 73.730469 22.503906 73.730469 21.40625 L 73.730469 18.800781 C 73.730469 18.019531 73.089844 17.382812 72.300781 17.382812 " fill-opacity="1" fill-rule="nonzero"/></g><path fill="#5b7482" d="M 56.09375 6.0625 L 56.09375 5.117188 L 55.140625 5.117188 L 55.140625 6.0625 L 56.09375 6.0625 " fill-opacity="1" fill-rule="nonzero"/><path fill="#5b7482" d="M 58.953125 5.117188 L 58 5.117188 L 58 6.0625 L 58.953125 6.0625 L 58.953125 5.117188 " fill-opacity="1" fill-rule="nonzero"/><path fill="#5b7482" d="M 61.816406 5.117188 L 60.863281 5.117188 L 60.863281 6.0625 L 61.816406 6.0625 L 61.816406 5.117188 " fill-opacity="1" fill-rule="nonzero"/><path fill="#5b7482" d="M 63.722656 5.117188 L 62.769531 5.117188 L 62.769531 6.0625 L 63.722656 6.0625 L 63.722656 5.117188 " fill-opacity="1" fill-rule="nonzero"/><path fill="#5b7482" d="M 66.582031 5.117188 L 65.628906 5.117188 L 65.628906 6.0625 L 66.582031 6.0625 L 66.582031 5.117188 " fill-opacity="1" fill-rule="nonzero"/><path fill="#5b7482" d="M 68.488281 5.117188 L 67.535156 5.117188 L 67.535156 6.0625 L 68.488281 6.0625 L 68.488281 5.117188 " fill-opacity="1" fill-rule="nonzero"/><path fill="#5b7482" d="M 68.488281 7.003906 L 67.535156 7.003906 L 67.535156 7.949219 L 68.488281 7.949219 L 68.488281 7.003906 " fill-opacity="1" fill-rule="nonzero"/><path fill="#5b7482" d="M 58.953125 7.003906 L 58 7.003906 L 58 7.949219 L 58.953125 7.949219 L 58.953125 7.003906 " fill-opacity="1" fill-rule="nonzero"/><path fill="#5b7482" d="M 61.816406 9.835938 L 60.863281 9.835938 L 60.863281 10.777344 L 61.816406 10.777344 L 61.816406 9.835938 " fill-opacity="1" fill-rule="nonzero"/><path fill="#5b7482" d="M 58 9.835938 L 57.046875 9.835938 L 57.046875 10.777344 L 58 10.777344 L 58 9.835938 " fill-opacity="1" fill-rule="nonzero"/><path fill="#5b7482" d="M 59.910156 11.722656 L 58.953125 11.722656 L 58.953125 12.664062 L 59.910156 12.664062 L 59.910156 11.722656 " fill-opacity="1" fill-rule="nonzero"/><path fill="#5b7482" d="M 63.722656 9.835938 L 62.769531 9.835938 L 62.769531 10.777344 L 63.722656 10.777344 L 63.722656 9.835938 " fill-opacity="1" fill-rule="nonzero"/><path fill="#5b7482" d="M 61.816406 11.722656 L 60.863281 11.722656 L 60.863281 12.664062 L 61.816406 12.664062 L 61.816406 11.722656 " fill-opacity="1" fill-rule="nonzero"/><path fill="#5b7482" d="M 56.570312 14.082031 L 55.617188 14.082031 L 55.617188 15.023438 L 56.570312 15.023438 L 56.570312 14.082031 " fill-opacity="1" fill-rule="nonzero"/><path fill="#5b7482" d="M 56.570312 15.96875 L 55.617188 15.96875 L 55.617188 16.910156 L 56.570312 16.910156 L 56.570312 15.96875 " fill-opacity="1" fill-rule="nonzero"/><path fill="#5b7482" d="M 58.476562 15.96875 L 57.523438 15.96875 L 57.523438 16.910156 L 58.476562 16.910156 L 58.476562 15.96875 " fill-opacity="1" fill-rule="nonzero"/><path fill="#5b7482" d="M 58.476562 18.800781 L 57.523438 18.800781 L 57.523438 19.742188 L 58.476562 19.742188 L 58.476562 18.800781 " fill-opacity="1" fill-rule="nonzero"/><path fill="#5b7482" d="M 55.617188 21.628906 L 56.570312 21.628906 L 56.570312 20.6875 L 55.617188 20.6875 L 55.617188 21.628906 " fill-opacity="1" fill-rule="nonzero"/><path fill="#5b7482" d="M 58.476562 20.6875 L 57.523438 20.6875 L 57.523438 21.628906 L 58.476562 21.628906 L 58.476562 20.6875 " fill-opacity="1" fill-rule="nonzero"/><path fill="#5b7482" d="M 60.386719 16.910156 L 61.339844 16.910156 L 61.339844 15.96875 L 60.386719 15.96875 L 60.386719 16.910156 " fill-opacity="1" fill-rule="nonzero"/><path fill="#5b7482" d="M 62.292969 15.023438 L 63.246094 15.023438 L 63.246094 14.082031 L 62.292969 14.082031 L 62.292969 15.023438 " fill-opacity="1" fill-rule="nonzero"/><path fill="#5b7482" d="M 66.582031 9.835938 L 65.628906 9.835938 L 65.628906 10.777344 L 66.582031 10.777344 L 66.582031 9.835938 " fill-opacity="1" fill-rule="nonzero"/><path fill="#5b7482" d="M 68.488281 9.835938 L 67.535156 9.835938 L 67.535156 10.777344 L 68.488281 10.777344 L 68.488281 9.835938 " fill-opacity="1" fill-rule="nonzero"/><path fill="#5b7482" d="M 67.535156 12.664062 L 68.488281 12.664062 L 68.488281 11.722656 L 67.535156 11.722656 L 67.535156 12.664062 " fill-opacity="1" fill-rule="nonzero"/><path fill="#5b7482" d="M 65.628906 12.664062 L 66.582031 12.664062 L 66.582031 11.722656 L 65.628906 11.722656 L 65.628906 12.664062 " fill-opacity="1" fill-rule="nonzero"/><g clip-path="url(#id2)"><path fill="#5b7482" d="M 50.375 25.402344 L 50.375 24.460938 L 62.292969 24.460938 L 62.292969 23.515625 L 53.234375 23.515625 L 53.234375 17.105469 L 53.570312 16.773438 C 54.171875 16.179688 54.5 15.390625 54.5 14.554688 C 54.5 13.875 54.285156 13.226562 53.882812 12.691406 L 55.71875 10.875 C 56.296875 10.300781 56.296875 9.367188 55.71875 8.792969 C 55.136719 8.21875 54.191406 8.21875 53.613281 8.792969 L 53.234375 9.167969 L 53.234375 3.230469 L 70.394531 3.230469 L 70.394531 15.96875 L 71.347656 15.96875 L 71.347656 2.757812 C 71.347656 2.5 71.132812 2.285156 70.871094 2.285156 L 52.757812 2.285156 C 52.496094 2.285156 52.28125 2.5 52.28125 2.757812 L 52.28125 7.949219 L 50.851562 7.949219 C 49.800781 7.949219 48.945312 8.792969 48.945312 9.835938 L 48.945312 13.886719 L 47.65625 15.164062 L 48.328125 15.828125 L 49.757812 14.414062 C 49.847656 14.328125 49.898438 14.207031 49.898438 14.082031 L 49.898438 9.835938 C 49.898438 9.316406 50.328125 8.890625 50.851562 8.890625 L 52.28125 8.890625 L 52.28125 10.113281 L 51.46875 10.917969 L 52.140625 11.585938 L 54.289062 9.460938 C 54.496094 9.253906 54.835938 9.253906 55.042969 9.460938 C 55.25 9.667969 55.25 10.003906 55.042969 10.210938 L 52.898438 12.332031 C 52.710938 12.515625 52.710938 12.816406 52.898438 13 C 53.761719 13.855469 53.761719 15.25 52.898438 16.105469 L 50.515625 18.464844 L 51.1875 19.132812 L 52.28125 18.050781 L 52.28125 23.515625 L 49.898438 23.515625 C 49.636719 23.515625 49.421875 23.726562 49.421875 23.988281 L 49.421875 25.402344 C 49.421875 26.445312 50.277344 27.289062 51.328125 27.289062 L 65.152344 27.289062 L 65.152344 26.347656 L 51.328125 26.347656 C 50.804688 26.347656 50.375 25.925781 50.375 25.402344 " fill-opacity="1" fill-rule="nonzero"/></g><g clip-path="url(#id3)"><path fill="#5b7482" d="M 72.300781 2.285156 L 72.300781 11.25 L 73.253906 11.25 L 73.253906 2.285156 C 73.253906 1.246094 72.398438 0.398438 71.347656 0.398438 L 67.058594 0.398438 L 67.058594 1.34375 L 71.347656 1.34375 C 71.875 1.34375 72.300781 1.765625 72.300781 2.285156 " fill-opacity="1" fill-rule="nonzero"/></g><g clip-path="url(#id4)"><path fill="#5b7482" d="M 72.300781 13.136719 L 73.253906 13.136719 L 73.253906 12.195312 L 72.300781 12.195312 L 72.300781 13.136719 " fill-opacity="1" fill-rule="nonzero"/></g></svg>